<?xml version="1.0" encoding="UTF-8" standalone="no"?>
<!-- Created with Inkscape (http://www.inkscape.org/) -->

<?xml-stylesheet type="text/css" href="http://snelgrove.audio/css/app.css" ?><svg
   xmlns:dc="http://purl.org/dc/elements/1.1/"
   xmlns:cc="http://creativecommons.org/ns#"
   xmlns:rdf="http://www.w3.org/1999/02/22-rdf-syntax-ns#"
   xmlns:svg="http://www.w3.org/2000/svg"
   xmlns="http://www.w3.org/2000/svg"
   xmlns:sodipodi="http://sodipodi.sourceforge.net/DTD/sodipodi-0.dtd"
   xmlns:inkscape="http://www.inkscape.org/namespaces/inkscape"
   preserveAspectRatio="xMinYMin meet"
   viewBox="0 0 638.11405 458.00104"
   width="100%"
   height="100%"
   id="svg2"
   version="1.1"
   inkscape:version="0.48.4 r9939"
   sodipodi:docname="logo.svg">
  <defs
     id="defs3204">
    <style
       type="text/css"
       id="style3206">
  .logo {
       opacity:1;
       fill:#6398f3;
       fill-opacity:1;
       fill-rule:evenodd;
       stroke:none;
       stroke-width:1px;
       stroke-linecap:butt;
       stroke-linejoin:miter;
       stroke-opacity:1;
  }
  </style>
  </defs>
  <sodipodi:namedview
     id="base"
     pagecolor="#ffffff"
     bordercolor="#666666"
     borderopacity="1.0"
     inkscape:pageopacity="0.0"
     inkscape:pageshadow="2"
     inkscape:zoom="2.0456063"
     inkscape:cx="287.14464"
     inkscape:cy="199.81376"
     inkscape:document-units="px"
     inkscape:current-layer="logo"
     showgrid="false"
     inkscape:window-width="1920"
     inkscape:window-height="1137"
     inkscape:window-x="3192"
     inkscape:window-y="-8"
     inkscape:window-maximized="1"
     showguides="true"
     inkscape:guide-bbox="true"
     fit-margin-top="0"
     fit-margin-left="0"
     fit-margin-right="0"
     fit-margin-bottom="0"
     units="in">
    <sodipodi:guide
       position="154.13586,319.34002"
       orientation="0,1"
       id="guide7991" />
    <sodipodi:guide
       position="208.99042,258.37425"
       orientation="0,1"
       id="guide7993" />
  </sodipodi:namedview>
  <metadata
     id="metadata7">
    <rdf:RDF>
      <cc:Work
         rdf:about="">
        <dc:format>image/svg+xml</dc:format>
        <dc:type
           rdf:resource="http://purl.org/dc/dcmitype/StillImage" />
        <dc:title></dc:title>
      </cc:Work>
    </rdf:RDF>
  </metadata>
  <g
     inkscape:groupmode="layer"
     id="layer2"
     inkscape:label="Finished"
     transform="translate(881.80253,16.298843)">
    <g
       id="logo"
       inkscape:label=""
       class="logo"
       style="fill:#6398f3;fill-opacity:1;fill-rule:evenodd;stroke:none;display:inline">
      <path
         style="fill:#0000ff;fill-opacity:0.32275133;fill-rule:evenodd;stroke:#000000;stroke-width:0.44999999;stroke-linecap:butt;stroke-linejoin:miter;stroke-miterlimit:4;stroke-opacity:1;stroke-dasharray:none"
         d="M 213.40625 0 C 204.77589 -0.02924 195.58671 0.276513 185.8125 0.9375 C 70.634972 8.7264631 -6.60728 74.109425 0.4375 135.78125 C 8.4643 206.04997 56.66369 221.63311 85.8125 225.6875 C 111.65855 229.2825 164.19331 228.13087 234.28125 248.40625 C 269.37475 258.55826 306.2682 293.52897 306.1875 310.4375 C 306.0957 329.66798 287.12481 347.86157 248.4375 348.4375 C 214.87265 348.93718 219.76413 321.55405 227.71875 309.03125 C 242.48063 285.79191 279.14751 297.23704 251.03125 322.65625 C 274.93784 324.84194 295.72712 285.61437 254.5 284.78125 C 211.28839 283.90803 201.70856 321.15483 205 337.3125 C 207.20493 348.13648 224.5551 372.77887 255.5 375.6875 C 361.10087 385.61335 377.16222 290.25717 317.125 261.5625 C 260.49347 237.10672 197.90848 224.31893 136.8125 218.625 C 86.59885 213.94526 14.65953 213.52958 11.5625 133.78125 C 10.16297 97.743449 49.0057 69.129117 101.8125 54.65625 C 125.23569 48.236607 158.38051 44.183126 191.875 43.375 C 211.23548 42.907887 254.29973 45.591066 267 56.5 C 296.39293 81.747146 282.68098 130.83392 255.125 166.5625 C 248.75414 174.82285 231.71843 190.01638 223.5 190.4375 C 219.64748 190.63491 217.25529 189.34869 215.4375 187.21875 C 215.14846 186.88008 214.89004 186.5041 214.625 186.125 C 215.96805 185.33361 217.28978 184.50823 218.59375 183.6875 C 234.65223 173.58022 251.94291 158.8235 249.21875 149.34375 C 245.56188 136.61828 229.43874 136.78705 215.1875 144.9375 C 201.65191 152.67868 198.332 168.73707 201.4375 176.78125 C 202.02808 178.31102 202.95947 181.08651 204.4375 184.0625 C 197.8575 188.1884 192.20475 190.83797 187.28125 193.03125 C 183.41467 194.7537 181.55295 195.91057 181.46875 197.28125 C 181.38465 198.65194 184.10356 201.03634 189.96875 198.5 C 195.87775 195.94472 202.05163 193.03232 208.0625 189.8125 C 210.58872 192.95706 213.95487 195.55821 218.4375 196.1875 C 228.02839 197.53389 243.45793 191.10841 259.375 174.875 C 275.76912 155.00814 285.05033 138.23824 300.6875 117.25 C 315.38282 95.66573 338.68118 59.505552 328.5 35.46875 C 317.96786 12.202928 280.56647 0.227507 213.40625 0 z M 228 149.8125 C 238.45748 149.85119 227.69417 166.09893 221.125 171.6875 C 217.56866 174.71298 214.2136 177.33325 211.0625 179.59375 C 210.94204 179.35604 210.84319 179.14672 210.71875 178.90625 C 203.73367 165.40804 211.90914 151.18341 226.90625 149.875 C 227.28857 149.84164 227.66266 149.81125 228 149.8125 z "
         transform="translate(-881.80253,-16.298843)"
         id="path3778" />
      <path
         inkscape:label=""
         sodipodi:nodetypes="sscssscscassscssssss"
         inkscape:connector-curvature="0"
         id="g"
         d="m -556.38215,121.94885 c -17.79082,3.02632 -40.03819,64.54438 -16.14818,61.64471 10.51409,-1.27616 21.68884,-5.30205 29.46107,-9.71102 -3.05761,5.20279 -6.58514,14.10056 -11.85262,24.3909 -19.99036,39.05243 -62.17762,124.93033 -90.07812,171.83789 -7.40081,12.44258 -20.41671,45.09593 -28,39.25 -7.96429,-6.13964 -1.49858,-17.39572 8.25,-17.5 -4.57001,-11.59005 -19.87513,-15.05065 -31.61328,3.79883 -4.6953,7.53985 -5.9957,23.27671 -3.13672,29.95117 4.68956,11.9455 15.29755,17.00232 25.17893,15.95711 8.72864,-0.92328 13.9451,-10.0679 18.80045,-18.43684 37.48324,-64.60806 125.7681,-262.31546 136.27062,-281.52027 5.74885,-10.51229 8.69885,-16.91597 2.56798,-19.23093 -4.8722,-1.8397 -9.2155,11.43447 -11.31798,16.98093 -1.57935,-10.23843 -12.85725,-20.05335 -28.38215,-17.41248 z m 8.32425,14.89032 c 4.40526,0.0985 18.64595,6.89919 12.02021,21.08455 -2.50755,5.36853 -5.71563,7.36647 -16.86827,12.33059 -17.28675,7.69445 -16.50857,-10.11422 -12.8423,-18.01257 4.27068,-9.20043 7.98235,-15.61957 17.69036,-15.40257 z" />
      <path
         inkscape:label=""
         sodipodi:nodetypes="ssssssssssssss"
         inkscape:connector-curvature="0"
         id="n"
         d="m -726.90577,122.95121 c 16.75876,-0.64065 -2.34975,52.6308 6.84264,52.6308 5.07745,0 12.88752,-15.26629 19.75323,-29.59044 5.56422,-11.6088 9.89043,-22.80472 16.53765,-23.12125 2.92207,-0.13914 8.65388,-0.0617 9.24454,3.18437 0.74975,4.12037 -2.25329,8.23069 -2.25329,8.23069 -9.47278,-7.69395 -15.60628,13.07886 -17.92649,17.43541 -9.72561,18.26133 -12.90805,34.32152 -29.01629,31.96072 -16.41702,-2.40606 2.0304,-40.29216 -4.26287,-40.08327 -4.10981,0.13641 -13.4523,40.88011 -36.8242,40.37616 -9.93453,-0.21421 -13.9944,-8.14204 -13.80661,-17.67006 0.29158,-14.79394 6.07015,-14.20998 9.60938,-9.07318 1.11425,1.61722 1.76055,6.11548 6.13276,6.13004 14.15973,0.0471 29.23764,-40.15264 35.96955,-40.40999 z" />
      <path
         inkscape:label=""
         sodipodi:nodetypes="scsssscsssccsssssssscssssssscssccsccsscss"
         inkscape:connector-curvature="0"
         id="rov"
         d="m -483.44961,123.06518 c -25.7076,0.62222 -34.00344,20.14025 -23.86967,16.65806 -4.05872,9.39987 -14.85188,32.5989 -15.53278,33.96896 -1.44642,2.91038 -3.79867,2.07383 -5.38966,2.78093 -1.59099,0.70711 -6.51253,4.49539 -4.92154,6.43993 1.59099,1.94454 14.29903,1.81593 17.60925,-2.38732 3.61764,-4.5936 12.80219,-25.10076 12.80219,-25.10076 0,0 1.49581,-0.89539 10.043,-0.57626 30.24132,1.12903 -11.95972,24.7698 -0.0669,28.97852 12.01325,4.25134 25.8015,-9.6106 33.29711,-10.43635 5.39487,-0.59432 -1.66618,10.79075 18.83991,10.61397 19.57827,-5.49233 24.60603,-21.64462 34.1194,-37.47747 1.7653,-1.71213 6.20805,-3.82407 11.14058,-5.82219 3.75514,-1.52118 8.69608,-4.38052 10.24912,-3.01676 6.05068,5.31324 -23.77347,38.88598 -9.72395,45.07814 16.97952,7.48353 64.02053,-51.80906 67.70534,-52.85637 3.00834,-0.85504 -0.10228,-6.71193 -3.5353,-6.1857 -3.08734,0.47324 -47.17621,48.50145 -51.79392,47.90498 -6.61871,-0.85494 11.00906,-25.77982 13.99116,-37.80285 1.12074,-4.51854 -2.78723,-9.79562 -5.68339,-10.27894 -13.72056,-2.28973 -21.91992,11.31222 -32.34975,10.95866 -3.96258,-10.8128 -10.23389,-11.98205 -21.92169,-10.86994 -15.14365,1.44095 -21.21519,13.46767 -25.61056,21.31426 -3.65931,6.53257 -5.24642,12.23597 -5.82273,16.12768 -0.45561,3.07672 -3.51667,5.92785 -6.61276,7.73694 -4.47705,2.616 -14.32027,9.1193 -14.49646,7.54783 0,0 11.41694,-11.63187 12.3576,-17.31724 0.27586,-1.66733 -0.71728,-3.67923 -2.11063,-5.01546 -2.5195,-2.41622 -5.64046,-3.79296 -5.64046,-3.79296 0,0 16.19465,-6.83762 16.88809,-16.88816 0.93268,-13.51791 -18.49301,-10.41647 -23.9606,-10.28413 z m -15.87149,24.37668 c 1.56321,-4.72177 3.40728,-7.19607 4.92625,-11.5593 3.62592,-1.74857 5.56341,-3.23175 11.57977,-3.6701 13.08483,-0.95337 11.76945,5.87352 -2.04505,14.9121 -6.58114,-0.84626 -9.81701,0.0422 -14.46097,0.3173 z m 80.77944,-0.91369 c -0.61137,7.07405 -4.77324,17.33681 -11.84377,21.39067 -5.42984,3.11318 -18.6713,8.52967 -18.77161,-0.44955 -0.14721,-13.17902 5.24743,-21.63615 15.90967,-29.22148 7.61591,-4.3462 15.26803,1.77382 14.70571,8.28036 z" />
      <path
         inkscape:label=""
         sodipodi:nodetypes="ssscsssssssssssssss"
         inkscape:connector-curvature="0"
         id="e"
         d="m -289.53888,144.05319 c 3.78862,-2.96526 7.29983,-9.8787 2.2981,-15.02602 -6.04782,-6.22386 -29.87526,-6.89429 -34.64823,-1.76777 -4.77298,5.12653 -5.12775,14.12246 -4.24264,19.62221 -2.5912,1.89822 -13.18478,5.35457 -19.33832,13.20365 -3.07929,3.92776 -6.4624,6.61227 -4.34976,15.43418 2.40661,10.04942 16.21723,8.65152 34.82815,7.39768 21.28611,-1.43407 45.84529,-1.8484 51.08532,2.50182 9.36917,7.77817 -13.06182,9.52825 -8.13173,15.02602 5.41667,6.04037 33.31099,-5.04562 27.57717,-19.26867 -6.12416,-15.19131 -16.26345,-11.13692 -18.9151,-11.13692 -2.65165,0 -73.71589,9.36916 -77.4282,1.94454 -1.62601,-3.25202 2.46509,-9.86789 7.97439,-13.29652 7.06887,-4.39921 10.55574,-5.05953 16.24402,-5.26503 6.16476,-0.22272 18.71984,3.16941 16.08668,-2.65165 -0.98815,-2.18448 -3.62807,-2.68442 -11.66726,-4.94975 -3.31338,-0.93367 -9.17008,-9.83824 1.76776,-13.08148 15.17891,-4.50079 21.92031,4.94975 18.56155,8.66206 -3.35875,3.71231 -0.70703,5.00369 2.2981,2.65165 z" />
      <path
         inkscape:label=""
         sodipodi:nodetypes="scssssss"
         inkscape:connector-curvature="0"
         id="l"
         d="m -551,93.837057 c -9.42539,4.089847 -24.49412,30.482643 -35.68845,51.512753 -13.77203,21.32715 -15.69222,41.67409 -38.13998,37.19435 -3.61043,-0.72051 -3.99683,-8.05933 -1.74977,-12.90679 1.46553,-3.16149 5.36806,-9.98721 9.13972,-2.03255 2.31579,4.88414 3.75962,4.1474 6.86012,0.58936 6.68531,-7.67184 36.1884,-69.109659 45.89902,-77.273133 8.50602,-7.150794 17.95628,1.060169 13.67934,2.91601 z" />
    </g>
  </g>
</svg>
