<svg
   preserveAspectRatio="xMinYMin meet"
   viewBox="0 0 638.11405 458.00104"
   width="100%"
   height="100%"
   id="logo"
   version="1.1" >
  <g transform="translate(881.80253,16.298843)" >
    <g class="logo">
      <path
         d="M 213.40039 0.001953125 C 204.77003 -0.027286875 195.5828 0.2687005 185.80859 0.9296875 C 70.631064 8.7186506 -6.5994675 74.113334 0.4453125 135.78516 C 8.4721125 206.05388 56.653924 221.63506 85.802734 225.68945 C 111.64878 229.28445 164.20698 228.14259 234.29492 248.41797 C 255.54729 254.56595 277.4364 269.8125 291.39062 284.63867 C 280.6422 305.72937 269.27117 327.74523 258.44141 347.8418 C 255.26575 348.16929 251.93495 348.36981 248.4375 348.42188 C 214.87265 348.92156 219.7739 321.54819 227.72852 309.02539 C 242.4904 285.78605 279.14946 297.22337 251.0332 322.64258 C 274.93979 324.82827 295.72517 285.61632 254.49805 284.7832 C 211.28644 283.90998 201.70856 321.15288 205 337.31055 C 206.92109 346.74117 220.3492 366.66409 244.24023 373.5625 C 241.68263 378.06376 239.17604 382.42005 236.80273 386.41016 C 229.40192 398.85274 216.38602 431.50609 208.80273 425.66016 C 200.83844 419.52052 207.30415 408.26444 217.05273 408.16016 C 212.48272 396.57011 197.1776 393.1095 185.43945 411.95898 C 180.74415 419.49883 179.44375 435.2357 182.30273 441.91016 C 186.99229 453.85566 197.60104 458.9124 207.48242 457.86719 C 216.21106 456.94391 221.4259 447.79863 226.28125 439.42969 C 235.06981 424.28126 246.66606 401.77198 259.38281 376.00586 C 361.48446 383.25659 376.42001 289.88782 317.12695 261.54883 C 316.23271 261.16266 315.33273 260.78857 314.43555 260.4082 C 338.12123 209.59384 357.94599 166.33402 362.55273 157.91016 C 368.30158 147.39787 371.25196 140.99465 365.12109 138.67969 C 360.24889 136.83999 355.90521 150.1137 353.80273 155.66016 C 352.22338 145.42173 340.94482 135.60718 325.41992 138.24805 C 307.6291 141.27437 285.38147 202.79225 309.27148 199.89258 C 319.78557 198.61642 330.96019 194.59061 338.73242 190.18164 C 335.67481 195.38443 332.14834 204.28193 326.88086 214.57227 C 321.27678 225.52019 313.83215 240.32838 305.54297 256.74609 C 252.02554 235.39988 193.7744 223.92565 136.81445 218.61719 C 86.600803 213.93745 14.653671 213.51396 11.556641 133.76562 C 10.157111 97.727827 48.993981 69.125211 101.80078 54.652344 C 125.22397 48.232701 158.3727 44.185079 191.86719 43.376953 C 211.22767 42.90984 254.30168 45.575441 267.00195 56.484375 C 296.39488 81.731521 282.69465 130.83783 255.13867 166.56641 C 248.76781 174.82676 231.69182 189.8072 223.48633 190.43164 C 220.17698 190.68348 216.06368 188.7246 214.29297 186.32812 C 234.67024 174.11483 256.95272 156.56426 246.95703 144.74609 C 241.09059 137.81004 232.20365 138.76178 224.41797 140.85156 C 207.63355 145.35674 193.06323 164.17118 204.45703 184.17578 C 199.33801 187.27109 194.00995 189.72447 189.81445 191.7207 C 176.75359 197.85467 182.79767 198.20325 183.38867 199.3457 C 184.35486 201.21342 195.91409 196.58459 207.86328 190.08008 C 210.57397 193.21696 214.78681 195.24869 218.42383 196.1875 C 228.00447 197.605 243.44621 191.11622 259.36328 174.88281 C 275.7574 155.01595 285.04447 138.24996 300.68164 117.26172 C 315.37696 95.677452 338.67532 59.517271 328.49414 35.480469 C 317.962 12.214646 280.56061 0.22946012 213.40039 0.001953125 z M 324.19727 104.34961 C 321.98197 104.41363 319.51537 105.20954 317.12305 107.2207 C 307.41243 115.38418 277.90992 176.82035 271.22461 184.49219 C 268.12411 188.05023 266.67907 188.78844 264.36328 183.9043 C 260.59162 175.94964 256.69014 182.77406 255.22461 185.93555 C 252.97755 190.78301 253.36418 198.12324 256.97461 198.84375 C 279.42237 203.32349 281.34125 182.97559 295.11328 161.64844 C 306.30761 140.61833 321.37734 114.22657 330.80273 110.13672 C 333.87678 108.80283 329.85859 104.18599 324.19727 104.34961 z M 406.52148 138.96875 C 403.13393 138.99222 400.06214 139.32192 398.35352 139.36328 C 372.64592 139.9855 364.34865 159.50367 374.48242 156.02148 C 370.4237 165.42135 359.63207 188.62017 358.95117 189.99023 C 357.50475 192.90061 355.15154 192.06438 353.56055 192.77148 C 351.96956 193.47859 347.04768 197.2664 348.63867 199.21094 C 350.22966 201.15548 362.93783 201.02747 366.24805 196.82422 C 369.86569 192.23062 379.05078 171.72461 379.05078 171.72461 C 379.05078 171.72461 380.54656 170.82931 389.09375 171.14844 C 419.33507 172.27747 377.13452 195.91823 389.02734 200.12695 C 401.04059 204.37829 414.82861 190.5152 422.32422 189.68945 C 427.71909 189.09513 420.65797 200.47951 441.16406 200.30273 C 460.74233 194.8104 465.76983 178.65902 475.2832 162.82617 C 477.0485 161.11404 481.4913 159.00203 486.42383 157.00391 C 490.17897 155.48273 495.12079 152.62257 496.67383 153.98633 C 502.72451 159.29957 472.8997 192.87229 486.94922 199.06445 C 503.92874 206.54798 550.96949 147.25629 554.6543 146.20898 C 557.66264 145.35394 554.55216 139.49721 551.11914 140.02344 C 548.0318 140.49668 503.94193 188.5242 499.32422 187.92773 C 492.70551 187.07279 510.33431 162.14803 513.31641 150.125 C 514.43715 145.60646 510.52897 140.32902 507.63281 139.8457 C 493.91225 137.55597 485.71303 151.15825 475.2832 150.80469 C 471.32062 139.99189 465.04913 138.82344 453.36133 139.93555 C 438.21768 141.3765 432.14537 153.40341 427.75 161.25 C 424.09069 167.78257 422.50404 173.48524 421.92773 177.37695 C 421.47212 180.45367 418.41054 183.30419 415.31445 185.11328 C 410.8374 187.72928 400.99455 194.23358 400.81836 192.66211 C 400.81836 192.66211 412.23512 181.03107 413.17578 175.3457 C 413.45164 173.67837 412.45976 171.66631 411.06641 170.33008 C 408.54691 167.91386 405.42578 166.53711 405.42578 166.53711 C 405.42578 166.53711 421.62101 159.69898 422.31445 149.64844 C 422.95567 140.35487 413.97411 138.91712 406.52148 138.96875 z M 199.24219 139.13281 C 198.80465 139.13767 198.39651 139.15253 198.03125 139.16992 C 191.38403 139.48645 187.05641 150.68222 181.49219 162.29102 C 174.62648 176.61517 166.81768 191.88086 161.74023 191.88086 C 152.54784 191.88086 171.65524 138.60935 154.89648 139.25 C 148.16457 139.50735 133.08746 179.70726 118.92773 179.66016 C 114.55552 179.6456 113.90917 175.14652 112.79492 173.5293 C 109.25569 168.3925 103.47713 167.80958 103.18555 182.60352 C 102.99776 192.13154 107.05766 200.05923 116.99219 200.27344 C 140.36409 200.77739 149.7066 160.03289 153.81641 159.89648 C 160.10968 159.68759 141.66111 197.57441 158.07812 199.98047 C 174.18637 202.34127 177.37009 186.28086 187.0957 168.01953 C 189.41591 163.66298 195.5487 142.89003 205.02148 150.58398 C 205.02148 150.58398 208.02514 146.47389 207.27539 142.35352 C 206.75856 139.5132 202.30493 139.0988 199.24219 139.13281 z M 574.03516 140.13867 C 567.73719 140.18277 562.00224 141.31574 559.91406 143.55859 C 555.14108 148.68512 554.78481 157.67994 555.66992 163.17969 C 553.07872 165.07791 542.48557 168.53569 536.33203 176.38477 C 533.25274 180.31253 529.86978 182.99645 531.98242 191.81836 C 534.38903 201.86778 548.19963 200.47064 566.81055 199.2168 C 588.09666 197.78273 612.65645 197.36853 617.89648 201.71875 C 627.26565 209.49692 604.83358 211.24637 609.76367 216.74414 C 615.18034 222.78451 643.07562 211.69766 637.3418 197.47461 C 631.21764 182.2833 621.07743 186.33789 618.42578 186.33789 C 615.77413 186.33789 544.71036 195.70782 540.99805 188.2832 C 539.37204 185.03118 543.46336 178.41496 548.97266 174.98633 C 556.04153 170.58712 559.52852 169.9262 565.2168 169.7207 C 571.38156 169.49798 583.93589 172.89137 581.30273 167.07031 C 580.31458 164.88583 577.67591 164.38447 569.63672 162.11914 C 566.32334 161.18547 560.46646 152.2823 571.4043 149.03906 C 586.58321 144.53827 593.3236 153.98886 589.96484 157.70117 C 586.60609 161.41348 589.25854 162.7036 592.26367 160.35156 C 596.05229 157.3863 599.56423 150.47349 594.5625 145.32617 C 591.1606 141.82525 582.13254 140.08197 574.03516 140.13867 z M 401.27344 148.42188 C 411.8599 148.41945 409.89445 154.95016 396.94336 163.42383 C 390.36222 162.57757 387.12443 163.46513 382.48047 163.74023 C 384.04368 159.01846 385.88923 156.54487 387.4082 152.18164 C 391.03412 150.43307 392.97192 148.95007 398.98828 148.51172 C 399.80608 148.45213 400.56767 148.42204 401.27344 148.42188 z M 227.625 149.81836 C 233.08378 149.81036 233.61837 155.06627 230.21484 160.91211 C 225.99398 168.16178 216.43358 176.53444 211.17188 179.43555 C 208.77252 176.6392 206.71178 166.42624 210.77344 160.64844 C 214.80056 154.91977 221.57002 150.40418 227.625 149.81836 z M 454.14453 153.0918 C 459.48329 153.28449 463.68346 157.94627 463.26172 162.82617 C 462.65035 169.90022 458.4885 180.16294 451.41797 184.2168 C 445.98813 187.32998 432.74484 192.7468 432.64453 183.76758 C 432.49732 170.58856 437.89245 162.1322 448.55469 154.54688 C 450.45866 153.46033 452.36494 153.02756 454.14453 153.0918 z M 333.74414 153.13867 C 338.1494 153.23717 352.39136 160.0373 345.76562 174.22266 C 343.25807 179.59119 340.04912 181.58861 328.89648 186.55273 C 311.60973 194.24718 312.38842 176.43937 316.05469 168.54102 C 320.32537 159.34059 324.03613 152.92167 333.74414 153.13867 z M 298.90039 293.62891 C 303.50692 299.98556 306.19953 305.87439 306.17773 310.44141 C 306.10982 324.66814 295.70224 338.30897 274.63281 344.68164 C 282.67805 327.97199 290.86129 310.72264 298.90039 293.62891 z "
         transform="translate(-881.80253,-16.298843)" />
    </g>
  </g>
</svg>
